<mxfile host="app.diagrams.net" modified="2022-08-01T10:25:16.241Z" agent="5.0 (Macintosh; Intel Mac OS X 10_15_7) AppleWebKit/537.36 (KHTML, like Gecko) Chrome/99.0.4844.74 Safari/537.36" etag="mYidFluxEn6zqp0LwpE7" version="20.2.2" type="github">
  <diagram id="AEz7iCHHdjKyT90IiPuK" name="第 1 页">
    <mxGraphModel dx="786" dy="405" grid="1" gridSize="10" guides="1" tooltips="1" connect="1" arrows="1" fold="1" page="1" pageScale="1" pageWidth="827" pageHeight="1169" math="0" shadow="0">
      <root>
        <mxCell id="0" />
        <mxCell id="1" parent="0" />
        <mxCell id="rabq3llSEpP3MPOZf4vk-1" value="Client" style="rounded=0;whiteSpace=wrap;html=1;" vertex="1" parent="1">
          <mxGeometry x="210" y="80" width="70" height="240" as="geometry" />
        </mxCell>
        <mxCell id="rabq3llSEpP3MPOZf4vk-2" value="" style="rounded=0;whiteSpace=wrap;html=1;" vertex="1" parent="1">
          <mxGeometry x="360" y="80" width="170" height="240" as="geometry" />
        </mxCell>
        <mxCell id="rabq3llSEpP3MPOZf4vk-3" value="JSP文件" style="rounded=1;whiteSpace=wrap;html=1;" vertex="1" parent="1">
          <mxGeometry x="430" y="90" width="80" height="30" as="geometry" />
        </mxCell>
        <mxCell id="rabq3llSEpP3MPOZf4vk-6" value="Servlet文件(.java)" style="rounded=1;whiteSpace=wrap;html=1;" vertex="1" parent="1">
          <mxGeometry x="430" y="150" width="80" height="30" as="geometry" />
        </mxCell>
        <mxCell id="rabq3llSEpP3MPOZf4vk-7" value="Class文件(.class)" style="rounded=1;whiteSpace=wrap;html=1;" vertex="1" parent="1">
          <mxGeometry x="430" y="220" width="80" height="30" as="geometry" />
        </mxCell>
        <mxCell id="rabq3llSEpP3MPOZf4vk-8" value="Servlet实例" style="rounded=1;whiteSpace=wrap;html=1;" vertex="1" parent="1">
          <mxGeometry x="430" y="280" width="80" height="30" as="geometry" />
        </mxCell>
      </root>
    </mxGraphModel>
  </diagram>
</mxfile>
